<?xml version="1.0" standalone="no"?><!DOCTYPE svg PUBLIC "-//W3C//DTD SVG 1.1//EN" "http://www.w3.org/Graphics/SVG/1.1/DTD/svg11.dtd"><svg t="1719481872915" class="icon" viewBox="0 0 1024 1024" version="1.1" xmlns="http://www.w3.org/2000/svg" p-id="6406" xmlns:xlink="http://www.w3.org/1999/xlink" width="200" height="200"><path d="M512 0c281.6 0 512 230.4 512 512s-230.4 512-512 512S0 793.6 0 512 230.4 0 512 0z m115.2 505.6C672 467.2 704 416 704 352c0-108.8-83.2-192-192-192s-192 83.2-192 192c0 64 32 115.2 76.8 153.6C294.4 550.4 224 652.8 224 768c0 19.2 12.8 32 32 32s32-12.8 32-32c0-121.6 102.4-224 224-224s224 102.4 224 224c0 19.2 12.8 32 32 32s32-12.8 32-32c0-115.2-70.4-217.6-172.8-262.4zM512 480c-70.4 0-128-57.6-128-128s57.6-128 128-128 128 57.6 128 128-57.6 128-128 128z" p-id="6407"></path></svg>