<?xml version="1.0" standalone="no"?><!DOCTYPE svg PUBLIC "-//W3C//DTD SVG 1.1//EN" "http://www.w3.org/Graphics/SVG/1.1/DTD/svg11.dtd"><svg t="1719481139898" class="icon" viewBox="0 0 1024 1024" version="1.1" xmlns="http://www.w3.org/2000/svg" p-id="1468" xmlns:xlink="http://www.w3.org/1999/xlink" width="200" height="200"><path d="M850.266 491.474c18.744-18.746 49.136-18.746 67.88 0 18.746 18.744 18.746 49.136 0 67.88l-325.676 325.68c-43.994 43.994-115.324 43.994-159.32 0L106.06 557.94c-18.744-18.746-18.744-49.138 0-67.884 18.746-18.744 49.138-18.744 67.884 0l327.092 327.092a16.656 16.656 0 0 0 23.554 0l325.678-325.676z" fill="#2688dd" p-id="1469"></path><path d="M850.266 119.474c18.744-18.746 49.136-18.746 67.88 0 18.746 18.744 18.746 49.136 0 67.88l-325.676 325.68c-43.994 43.994-115.324 43.994-159.32 0L106.06 185.94c-18.744-18.746-18.744-49.138 0-67.884 18.746-18.744 49.138-18.744 67.884 0l327.092 327.092a16.656 16.656 0 0 0 23.554 0L850.266 119.474z" fill="#2d8cf0" p-id="1470"></path></svg>